<?xml version="1.0" standalone="no"?>
<!DOCTYPE svg PUBLIC "-//W3C//DTD SVG 20010904//EN"
 "http://www.w3.org/TR/2001/REC-SVG-20010904/DTD/svg10.dtd">
<svg version="1.0" xmlns="http://www.w3.org/2000/svg"
 width="234.000000pt" height="59.000000pt" viewBox="0 0 234.000000 59.000000"
 preserveAspectRatio="xMidYMid meet">
<metadata>
Created by potrace 1.16, written by Peter Selinger 2001-2019
</metadata>
<g transform="translate(0.000000,59.000000) scale(0.100000,-0.100000)"
fill="#000000" stroke="none">
<path d="M232 344 l137 -138 63 29 c35 16 66 32 70 35 4 3 -86 52 -200 109
l-207 103 137 -138z"/>
<path d="M1564 381 c-60 -27 -82 -93 -54 -160 16 -40 55 -64 105 -65 51 -1
102 28 85 49 -10 12 -15 12 -36 -1 -31 -21 -88 -11 -109 19 -8 12 -15 35 -15
52 0 63 51 96 117 74 45 -15 66 2 31 25 -39 26 -79 28 -124 7z"/>
<path d="M612 273 l3 -118 85 0 c73 0 85 2 88 18 3 15 -5 17 -67 17 -55 0 -71
3 -71 15 0 11 16 15 67 17 55 2 68 6 71 21 3 15 -5 17 -67 17 -55 0 -71 3 -71
15 0 11 16 15 68 17 52 2 67 6 67 18 0 12 -16 16 -68 18 -91 4 -87 26 6 30 51
2 67 6 67 17 0 12 -18 15 -90 15 l-91 0 3 -117z"/>
<path d="M900 270 l0 -120 33 0 c105 1 167 47 167 126 0 39 -5 51 -34 80 -32
32 -38 34 -100 34 l-66 0 0 -120z m142 60 c10 -12 18 -37 18 -55 0 -47 -27
-75 -78 -82 l-42 -6 0 88 0 88 42 -6 c27 -4 49 -14 60 -27z"/>
<path d="M1200 311 c0 -102 10 -128 57 -148 33 -13 43 -14 78 -2 52 18 65 46
65 147 l0 82 -100 0 -100 0 0 -79z m160 -21 c0 -65 -21 -100 -60 -100 -39 0
-60 35 -60 100 l0 60 60 0 60 0 0 -60z"/>
<path d="M1838 275 c-37 -62 -64 -116 -60 -119 10 -10 250 -7 257 4 6 9 -108
214 -124 225 -4 2 -37 -47 -73 -110z"/>
</g>
</svg>
